<svg width="121" height="33" viewBox="0 0 66 15" fill="none" xmlns="http://www.w3.org/2000/svg">
<path id="Vector" d="M15.1758 0.898442H10.918L7.59765 9.54106L4.27734 0.898442H0V14.1016H2.79297V4.3457L6.55273 14.1016H8.53515L12.2949 4.3457V14.1016H15.1758V0.898442ZM19.2871 3.28125C19.7461 3.28125 20.1367 3.125 20.4492 2.8125C20.7617 2.5 20.918 2.10937 20.918 1.64062C20.918 1.17187 20.7617 0.781252 20.4492 0.468752C20.1367 0.156252 19.7461 0 19.2871 0C18.8184 0 18.4277 0.156252 18.1152 0.468752C17.793 0.781252 17.6367 1.17187 17.6367 1.64062C17.6367 2.10937 17.793 2.5 18.1152 2.8125C18.4277 3.125 18.8184 3.28125 19.2871 3.28125ZM17.9395 14.1016H20.6152V4.86328H17.9395V14.1016ZM28.6133 4.61914C27.2168 4.61914 26.2305 5.22461 25.6543 6.44531V4.86328H23.1348V14.1016H25.8106V9.27736C25.8106 8.61328 25.9766 8.08594 26.3086 7.68554C26.6309 7.29492 27.0703 7.09961 27.6172 7.09961C28.5449 7.09961 29.0137 7.63672 29.0137 8.70117V14.1016H31.6992V7.99804C31.6992 6.93359 31.4258 6.10351 30.8887 5.50781C30.3516 4.91211 29.5899 4.61914 28.6133 4.61914ZM35.4199 3.28125C35.8789 3.28125 36.2695 3.125 36.582 2.8125C36.8945 2.5 37.0508 2.10937 37.0508 1.64062C37.0508 1.17187 36.8945 0.781252 36.582 0.468752C36.2695 0.156252 35.8789 0 35.4199 0C34.9512 0 34.5606 0.156252 34.2481 0.468752C33.9258 0.781252 33.7695 1.17187 33.7695 1.64062C33.7695 2.10937 33.9258 2.5 34.2481 2.8125C34.5606 3.125 34.9512 3.28125 35.4199 3.28125ZM34.0723 14.1016H36.7481V4.86328H34.0723V14.1016ZM44.9512 14.3457C46.7383 14.3457 48.125 13.8868 49.1309 12.9786C50.127 12.0704 50.625 10.8106 50.625 9.17966V0.898442H47.832V8.74023C47.832 9.64846 47.5879 10.3418 47.0996 10.8399C46.6113 11.3379 45.918 11.5821 45.0098 11.5821C44.1016 11.5821 43.4082 11.3379 42.9102 10.8399C42.4121 10.3418 42.168 9.64846 42.168 8.74023V0.898442H39.2676V9.17966C39.2676 10.8106 39.7656 12.0704 40.7617 12.9786C41.7676 13.8868 43.1641 14.3457 44.9512 14.3457ZM58.7109 4.61914C57.1973 4.61914 56.1816 5.39062 55.6738 6.92383V4.86328H53.1543V14.1016H55.8301V10.3418C55.8399 8.23242 56.6895 7.17773 58.3984 7.17773C58.7598 7.1875 59.0527 7.21679 59.2969 7.28515L59.5313 4.74609C59.3066 4.6582 59.0332 4.61914 58.7109 4.61914ZM64.1211 14.3457C64.7949 14.3457 65.3809 14.2383 65.8594 14.0235L65.5273 11.6602C65.2441 11.7969 64.9512 11.8653 64.6582 11.8653C64.3262 11.8653 64.082 11.7774 63.9356 11.6016C63.7891 11.4258 63.7207 11.1524 63.7207 10.7813V0.097656H61.0449V11.4258C61.0449 13.3692 62.0703 14.3457 64.1211 14.3457Z" fill="#34313D"/>
</svg>
