<svg width="119" height="32" viewBox="0 0 119 32" fill="none" xmlns="http://www.w3.org/2000/svg">
<path d="M2.63672 28V2.86328H7.4707L15.9961 21.9355L24.3457 2.86328H29.0039V28H24.6973V10.4922L17.877 28H13.9043L6.94336 10.4922V28H2.63672ZM38.4961 2.86328V6.55469H33.8379V2.86328H38.4961ZM38.4961 9.54297V28H33.8379V9.54297H38.4961ZM42.9082 28V9.54297H46.5117L47.0918 12.25C48.8613 10.4453 50.877 9.54297 53.1387 9.54297C57.5098 9.54297 59.6953 11.8164 59.6953 16.3633V28H55.0371V16.3633C55.0371 14.3242 54.0234 13.3047 51.9961 13.3047C50.4844 13.3047 49.0078 13.9082 47.5664 15.1152V28H42.9082ZM68.7656 2.86328V6.55469H64.1074V2.86328H68.7656ZM68.7656 9.54297V28H64.1074V9.54297H68.7656ZM73.6172 18.1211V2.86328H78.2754V18.1211C78.2754 22.1289 80.3262 24.1328 84.4277 24.1328C88.5293 24.1328 90.5801 22.1289 90.5801 18.1211V2.86328H95.2383V18.1211C95.2383 24.8242 91.6348 28.1758 84.4277 28.1758C77.2207 28.1758 73.6172 24.8242 73.6172 18.1211ZM100.072 28V9.54297H103.676L104.256 11.8984C105.873 10.3281 107.584 9.54297 109.389 9.54297V13.3047C107.654 13.3047 106.102 14.0254 104.73 15.4668V28H100.072ZM116.684 2.86328V28H112.025V2.86328H116.684Z" fill="#0bef79"/>
</svg>
