<svg xmlns="http://www.w3.org/2000/svg" width="320" height="320" viewBox="0 0 320 320">
<style type="text/css">
	.st1{fill:#3B3054;}
	.st2{fill:#0bef79;}
</style>
<g>
	<g>
		<path class="st1" d="M259.9,10.6H60.1c-27.3,0-49.6,22.2-49.6,49.6v199.7c0,27.3,22.2,49.6,49.6,49.6h199.7
			c27.3,0,49.6-22.2,49.6-49.6V60.1C309.4,32.8,287.2,10.6,259.9,10.6z M295.3,259.9c0,19.6-15.9,35.5-35.5,35.5H60.1
			c-19.6,0-35.5-15.9-35.5-35.5V60.1c0-19.6,15.9-35.5,35.5-35.5h199.7c19.6,0,35.5,15.9,35.5,35.5V259.9z"/>
		<rect x="85.3" y="221.5" class="st1" width="12.4" height="12.4"/>
		<g>
			<rect x="159.6" y="245.7" class="st2" width="24.8" height="12.4"/>
		</g>
		<g>
			<rect x="197.4" y="171.4" class="st2" width="12.4" height="12.4"/>
		</g>
		<rect x="85.3" y="85.3" class="st1" width="12.4" height="12.4"/>
		<path class="st1" d="M71.8,122.4h39.4c6.2,0,11.3-5,11.3-11.3V71.8c0-6.2-5-11.3-11.3-11.3H71.8c-6.2,0-11.3,5-11.3,11.3v39.4
			C60.5,117.4,65.6,122.4,71.8,122.4z M72.9,72.9h37.2V110H72.9V72.9z"/>
		<g>
			<polygon class="st2" points="246.9,146.6 234.5,146.6 234.5,171.4 222.2,171.4 222.2,183.8 234.5,183.8 234.5,196.1 
				222.2,196.1 222.2,208.5 209.8,208.5 209.8,196.1 197.4,196.1 197.4,220.9 185,220.9 185,233.3 209.8,233.3 209.8,245.7 
				222.2,245.7 222.2,258.1 259.3,258.1 259.3,245.7 246.9,245.7 246.9,233.3 234.5,233.3 234.5,208.5 259.3,208.5 259.3,196.1 
				246.9,196.1 246.9,183.8 259.3,183.8 259.3,159 246.9,159"/>
		</g>
		<rect x="222.3" y="85.3" class="st1" width="12.4" height="12.4"/>
		<path class="st1" d="M70.7,259.9h39.4c6.2,0,11.3-5,11.3-11.3v-39.4c0-6.2-5-11.3-11.3-11.3H70.7c-6.2,0-11.3,5-11.3,11.3v39.4
			C59.4,254.9,64.5,259.9,70.7,259.9z M71.8,210.4H109v37.2H71.8V210.4z"/>
	</g>
	<path class="st1" d="M208.9,121.8h39.4c6.2,0,11.3-5,11.3-11.3V71.1c0-6.2-5-11.3-11.3-11.3h-39.4c-6.2,0-11.3,5-11.3,11.3v39.4
		C197.6,116.7,202.7,121.8,208.9,121.8z M210,72.2h37.2v37.2H210V72.2z"/>
</g>
</svg>
