<svg width="105" height="29" viewBox="0 0 105 29" fill="none" xmlns="http://www.w3.org/2000/svg">
<g clip-path="url(#clip0_0_1)">
<path d="M2.336 26V16.176C2.336 14.9173 2.624 13.7653 3.2 12.72C3.776 11.6747 4.608 10.8427 5.696 10.224C6.784 9.60533 8.096 9.296 9.632 9.296C10.3787 9.296 11.1253 9.40267 11.872 9.616C12.6187 9.808 13.312 10.1493 13.952 10.64C14.592 11.1093 15.104 11.7493 15.488 12.56H15.52C15.9467 11.7493 16.48 11.1093 17.12 10.64C17.76 10.1493 18.4533 9.808 19.2 9.616C19.9467 9.40267 20.704 9.296 21.472 9.296C22.9867 9.296 24.288 9.60533 25.376 10.224C26.464 10.8427 27.296 11.6747 27.872 12.72C28.448 13.7653 28.736 14.9173 28.736 16.176V26H25.792V16.176C25.792 15.3653 25.6 14.6293 25.216 13.968C24.832 13.3067 24.3093 12.784 23.648 12.4C23.008 12.016 22.272 11.824 21.44 11.824C20.6293 11.824 19.8827 12.0267 19.2 12.432C18.5173 12.816 17.9733 13.3387 17.568 14C17.184 14.64 16.992 15.3653 16.992 16.176V26H14.048V16.176C14.048 15.3653 13.8453 14.64 13.44 14C13.056 13.3387 12.5227 12.816 11.84 12.432C11.1787 12.0267 10.432 11.824 9.6 11.824C8.78933 11.824 8.05333 12.016 7.392 12.4C6.752 12.784 6.24 13.3067 5.856 13.968C5.472 14.6293 5.28 15.3653 5.28 16.176V26H2.336ZM33.3985 26V9.68H36.3745V26H33.3985ZM34.9025 7.088C34.3692 7.088 33.8998 6.896 33.4945 6.512C33.1105 6.10667 32.9185 5.63733 32.9185 5.104C32.9185 4.57067 33.1105 4.112 33.4945 3.728C33.8998 3.32267 34.3692 3.12 34.9025 3.12C35.4358 3.12 35.8945 3.32267 36.2785 3.728C36.6838 4.112 36.8865 4.57067 36.8865 5.104C36.8865 5.63733 36.6838 6.10667 36.2785 6.512C35.8945 6.896 35.4358 7.088 34.9025 7.088ZM41.0235 26V16.56C41.0235 15.1093 41.3435 13.84 41.9835 12.752C42.6448 11.664 43.5515 10.8213 44.7035 10.224C45.8555 9.60533 47.1675 9.296 48.6395 9.296C50.1328 9.296 51.4448 9.60533 52.5755 10.224C53.7275 10.8213 54.6235 11.664 55.2635 12.752C55.9248 13.84 56.2555 15.1093 56.2555 16.56V26H53.3115V16.592C53.3115 15.6107 53.0875 14.768 52.6395 14.064C52.2128 13.3387 51.6368 12.784 50.9115 12.4C50.2075 12.016 49.4502 11.824 48.6395 11.824C47.8288 11.824 47.0608 12.016 46.3355 12.4C45.6315 12.784 45.0555 13.3387 44.6075 14.064C44.1808 14.768 43.9675 15.6107 43.9675 16.592V26H41.0235ZM60.9298 26V9.68H63.9058V26H60.9298ZM62.4338 7.088C61.9004 7.088 61.4311 6.896 61.0258 6.512C60.6418 6.10667 60.4498 5.63733 60.4498 5.104C60.4498 4.57067 60.6418 4.112 61.0258 3.728C61.4311 3.32267 61.9004 3.12 62.4338 3.12C62.9671 3.12 63.4258 3.32267 63.8098 3.728C64.2151 4.112 64.4178 4.57067 64.4178 5.104C64.4178 5.63733 64.2151 6.10667 63.8098 6.512C63.4258 6.896 62.9671 7.088 62.4338 7.088ZM76.2028 26.384C74.7308 26.384 73.4081 26.0853 72.2348 25.488C71.0828 24.8693 70.1761 24.016 69.5148 22.928C68.8748 21.84 68.5548 20.5707 68.5548 19.12V9.68H71.5308V19.088C71.5308 20.0693 71.7441 20.9227 72.1708 21.648C72.5974 22.352 73.1628 22.896 73.8668 23.28C74.5921 23.664 75.3601 23.856 76.1708 23.856C77.0028 23.856 77.7708 23.664 78.4748 23.28C79.2001 22.896 79.7761 22.352 80.2028 21.648C80.6508 20.9227 80.8748 20.0693 80.8748 19.088V9.68H83.8507V19.12C83.8507 20.5707 83.5201 21.84 82.8588 22.928C82.1974 24.016 81.2908 24.8693 80.1388 25.488C78.9868 26.0853 77.6748 26.384 76.2028 26.384ZM88.4275 26V14.32C88.4275 12.8693 88.8328 11.7387 89.6435 10.928C90.4755 10.096 91.6168 9.68 93.0675 9.68H96.4275V12.208H93.6115C92.9075 12.208 92.3528 12.4107 91.9475 12.816C91.5635 13.2213 91.3715 13.7867 91.3715 14.512V26H88.4275ZM99.1485 26V2.64H102.093V26H99.1485Z" fill="#0C0CF0"/>
</g>
<defs>
<clipPath id="clip0_0_1">
<rect width="105" height="29" fill="white"/>
</clipPath>
</defs>
</svg>
